<svg width="18" height="18" viewBox="0 0 18 18" fill="none" xmlns="http://www.w3.org/2000/svg">
<path d="M18 17.5C18 17.7761 17.7761 18 17.5 18H0.5C0.223858 18 0 17.7761 0 17.5V0.5C0 0.223858 0.223858 0 0.5 0H1.3C1.57614 0 1.8 0.223858 1.8 0.5V15.5C1.8 15.7761 2.02386 16 2.3 16H3.1C3.37614 16 3.6 15.7761 3.6 15.5V7.5C3.6 7.22386 3.82386 7 4.1 7H6.7C6.97614 7 7.2 7.22386 7.2 7.5V15.5C7.2 15.7761 7.42386 16 7.7 16H8.5C8.77614 16 9 15.7761 9 15.5V3.5C9 3.22386 9.22386 3 9.5 3H12.1C12.3761 3 12.6 3.22386 12.6 3.5V15.5C12.6 15.7761 12.8239 16 13.1 16H13.9C14.1761 16 14.4 15.7761 14.4 15.5V11.5C14.4 11.2239 14.6239 11 14.9 11H17.5C17.7761 11 18 11.2239 18 11.5V17.5Z" fill="white"/>
</svg>
