<svg width="25" height="22" viewBox="0 0 25 22" fill="none" xmlns="http://www.w3.org/2000/svg">
<path d="M1.83543 19.0107L11.6279 1.55469C12.0099 0.873691 12.9901 0.873691 13.3721 1.55469L23.1646 19.0107C23.5385 19.6773 23.0567 20.5 22.2924 20.5H2.70758C1.94326 20.5 1.46149 19.6773 1.83543 19.0107Z" stroke="#A6A4A4" stroke-width="2"/>
<path d="M13.5 8.06L13.276 14.822H11.624L11.386 8.06H13.5ZM12.492 18.098C12.1373 18.098 11.8433 17.9907 11.61 17.776C11.386 17.552 11.274 17.2767 11.274 16.95C11.274 16.6233 11.386 16.3527 11.61 16.138C11.8433 15.914 12.1373 15.802 12.492 15.802C12.8373 15.802 13.122 15.914 13.346 16.138C13.57 16.3527 13.682 16.6233 13.682 16.95C13.682 17.2767 13.57 17.552 13.346 17.776C13.122 17.9907 12.8373 18.098 12.492 18.098Z" fill="#A6A4A4"/>
</svg>
