<svg width="21" height="19" viewBox="0 0 21 19" fill="none" xmlns="http://www.w3.org/2000/svg">
<path fill-rule="evenodd" clip-rule="evenodd" d="M2.29778 6.30616L2.2278 12.6123L1.1139 12.6905L0 12.769L0.00052415 14.4741C0.000786243 16.4182 0.507151 17.6343 1.65722 18.4545C2.36775 18.961 2.71817 18.9822 10.4489 18.9822C21.7202 18.9822 20.8053 19.9109 20.9182 8.35624L21 0H11.6839H2.36802L2.29778 6.30616ZM18.5473 9.20878C18.4842 15.7167 18.4352 16.4049 18.0189 16.66C17.6853 16.8646 17.4353 16.8648 17.1016 16.661C16.7483 16.4452 16.6251 15.9626 16.5659 14.5602L16.4888 12.7397H10.4722H4.45559V7.38904V2.03836H11.5363H18.6168L18.5473 9.20878ZM6.60293 5.15959C6.68313 6.23992 6.68575 6.24246 7.73177 6.24246C8.77778 6.24246 8.7804 6.23992 8.8606 5.15959L8.94133 4.07671H7.73177H6.5222L6.60293 5.15959ZM11.0079 5.2322V6.3877L13.6944 6.31508L16.3809 6.24246L16.4613 5.15959L16.542 4.07671H13.7749H11.0079V5.2322ZM6.55234 9.4274V10.4466H7.73177H8.91119V9.4274V8.40822H7.73177H6.55234V9.4274ZM11.0079 9.4274V10.4466H13.7599H16.5119V9.4274V8.40822H13.7599H11.0079V9.4274ZM14.1531 15.001C14.1531 15.1236 14.2267 15.5822 14.3169 16.0202L14.4807 16.8164H8.73427C2.54834 16.8164 2.35884 16.7769 2.35884 15.4915V14.7781H8.25595C11.4994 14.7781 14.1531 14.8785 14.1531 15.001Z" fill="#A6A4A4"/>
</svg>
