<svg width="22" height="22" viewBox="0 0 22 22" fill="none" xmlns="http://www.w3.org/2000/svg">
<path d="M6.92 0.25H3.54V1.75H6.92V0.25ZM10.21 3.561C10.21 1.74366 8.75205 0.25 6.92 0.25V1.75C7.90795 1.75 8.71 2.55634 8.71 3.561H10.21ZM10.21 6.97V3.561H8.71V6.97H10.21ZM6.92 10.28C8.74996 10.28 10.21 8.79845 10.21 6.97H8.71C8.71 7.98155 7.91004 8.78 6.92 8.78V10.28ZM3.54 10.28H6.92V8.78H3.54V10.28ZM0.25 6.97C0.25 8.80038 1.72196 10.28 3.54 10.28V8.78C2.55804 8.78 1.75 7.97962 1.75 6.97H0.25ZM0.25 3.561V6.97H1.75V3.561H0.25ZM3.54 0.25C1.71987 0.25 0.25 1.74173 0.25 3.561H1.75C1.75 2.55827 2.56013 1.75 3.54 1.75V0.25ZM6.92 11.7197H3.54V13.2197H6.92V11.7197ZM10.21 15.0307C10.21 13.2026 8.75034 11.7197 6.92 11.7197V13.2197C7.90966 13.2197 8.71 14.0188 8.71 15.0307H10.21ZM10.21 18.4397V15.0307H8.71V18.4397H10.21ZM6.92 21.7497C8.75186 21.7497 10.21 20.2562 10.21 18.4397H8.71C8.71 19.4432 7.90814 20.2497 6.92 20.2497V21.7497ZM3.54 21.7497H6.92V20.2497H3.54V21.7497ZM0.25 18.4397C0.25 20.2582 1.72006 21.7497 3.54 21.7497V20.2497C2.55994 20.2497 1.75 19.4412 1.75 18.4397H0.25ZM0.25 15.0307V18.4397H1.75V15.0307H0.25ZM3.54 11.7197C1.72158 11.7197 0.25 13.2007 0.25 15.0307H1.75C1.75 14.0207 2.55842 13.2197 3.54 13.2197V11.7197ZM15.081 1.75H18.461V0.25H15.081V1.75ZM13.291 3.561C13.291 2.55634 14.0931 1.75 15.081 1.75V0.25C13.249 0.25 11.791 1.74366 11.791 3.561H13.291ZM13.291 6.97V3.561H11.791V6.97H13.291ZM15.081 8.78C14.091 8.78 13.291 7.98155 13.291 6.97H11.791C11.791 8.79845 13.2511 10.28 15.081 10.28V8.78ZM18.461 8.78H15.081V10.28H18.461V8.78ZM20.251 6.97C20.251 7.97962 19.443 8.78 18.461 8.78V10.28C20.2791 10.28 21.751 8.80038 21.751 6.97H20.251ZM20.251 3.561V6.97H21.751V3.561H20.251ZM18.461 1.75C19.4409 1.75 20.251 2.55827 20.251 3.561H21.751C21.751 1.74173 20.2811 0.25 18.461 0.25V1.75ZM18.461 11.7197H15.081V13.2197H18.461V11.7197ZM21.751 15.0307C21.751 13.2007 20.2794 11.7197 18.461 11.7197V13.2197C19.4426 13.2197 20.251 14.0207 20.251 15.0307H21.751ZM21.751 18.4397V15.0307H20.251V18.4397H21.751ZM18.461 21.7497C20.281 21.7497 21.751 20.2582 21.751 18.4397H20.251C20.251 19.4413 19.4411 20.2497 18.461 20.2497V21.7497ZM15.081 21.7497H18.461V20.2497H15.081V21.7497ZM11.791 18.4397C11.791 20.2563 13.2492 21.7497 15.081 21.7497V20.2497C14.0929 20.2497 13.291 19.4432 13.291 18.4397H11.791ZM11.791 15.0307V18.4397H13.291V15.0307H11.791ZM15.081 11.7197C13.2507 11.7197 11.791 13.2027 11.791 15.0307H13.291C13.291 14.0188 14.0914 13.2197 15.081 13.2197V11.7197Z" fill="#A6A4A4"/>
</svg>
