<svg width="26" height="27" viewBox="0 0 26 27" fill="black" xmlns="http://www.w3.org/2000/svg">
<mask id="path-1-outside-1_132_14965" maskUnits="userSpaceOnUse" x="0" y="0" width="26" height="27" fill="black">
<rect fill="black" width="26" height="27"/>
<path d="M1.11968 17.4008L3.52674 21.5633C3.63085 21.7461 3.79665 21.8857 3.99436 21.9572C4.19226 22.0284 4.40907 22.0267 4.60582 21.9522L7.46195 20.8047C8.02852 21.2286 8.64247 21.5852 9.29134 21.8672L9.72667 24.9014V24.9016C9.75533 25.1088 9.85829 25.2987 10.0165 25.4359C10.1746 25.5728 10.3773 25.6477 10.5866 25.6464H15.4063C15.6176 25.6512 15.8231 25.5782 15.9841 25.4414C16.1451 25.3046 16.2504 25.1134 16.2798 24.9043L16.7152 21.8646H16.7153C17.362 21.58 17.9747 21.2235 18.5419 20.8021L21.4036 21.9523C21.5983 22.0285 21.8139 22.0315 22.0109 21.961C22.2076 21.8906 22.3723 21.7513 22.4743 21.5689L24.8869 17.3928V17.3926C24.9893 17.211 25.0236 16.9989 24.9839 16.7944C24.9444 16.5896 24.8332 16.4058 24.6706 16.2754L22.2498 14.3831C22.34 13.6794 22.34 12.9673 22.2498 12.2636L24.6706 10.3685C24.8332 10.2368 24.9438 10.0516 24.9824 9.84599C25.021 9.64027 24.9852 9.42747 24.8815 9.24583L22.4745 5.08331H22.4743C22.3705 4.90107 22.2051 4.76182 22.0078 4.69057C21.8107 4.61932 21.5944 4.62066 21.398 4.69439L18.5337 5.84186C17.9671 5.41798 17.3532 5.06154 16.7043 4.77938L16.2799 1.74501C16.251 1.53546 16.1461 1.34368 15.9849 1.20612C15.8239 1.06878 15.618 0.995616 15.4063 1.0002H10.5867C10.3773 0.998102 10.1743 1.07222 10.0155 1.2088C9.85675 1.34537 9.75323 1.53506 9.72401 1.74231L9.28867 4.78201H9.28848C8.64186 5.06682 8.02927 5.42306 7.46192 5.84449L4.60022 4.69433C4.40519 4.61735 4.18895 4.61391 3.99145 4.6844C3.79412 4.75488 3.62889 4.89471 3.5267 5.07771L1.11963 9.24292C1.01342 9.42458 0.976175 9.63833 1.01495 9.84499C1.05373 10.0519 1.16567 10.2377 1.33052 10.3684L3.75133 12.2606V12.2608C3.6604 12.9643 3.6604 13.6766 3.75133 14.3804L1.33052 16.2782C1.16777 16.4098 1.05736 16.5951 1.01858 16.8006C0.979996 17.0064 1.01591 17.2192 1.11963 17.4008L1.11968 17.4008ZM1.66732 16.7079L4.20867 14.7198C4.2847 14.6608 4.32424 14.5662 4.31278 14.4707C4.26158 14.0902 4.23407 13.707 4.23064 13.3232C4.23407 12.9395 4.26158 12.5563 4.31278 12.1758C4.32424 12.0803 4.2847 11.9857 4.20867 11.9267L1.67021 9.93855C1.54203 9.83846 1.50898 9.65832 1.59342 9.51945L4.00601 5.34339C4.08204 5.20394 4.24994 5.143 4.3976 5.20088L7.41001 6.40586C7.50094 6.44425 7.60562 6.43069 7.68375 6.37033C8.29022 5.90481 8.95366 5.51935 9.65833 5.22286C9.74773 5.18619 9.81134 5.105 9.82528 5.0093L10.2553 1.82172C10.2761 1.66299 10.4129 1.54513 10.5729 1.5478H15.3926C15.5611 1.53328 15.7108 1.65401 15.7322 1.82172L16.1895 5.01483C16.2037 5.11053 16.2671 5.19171 16.3567 5.22839C17.0627 5.52027 17.7267 5.90538 18.3311 6.37297C18.4086 6.43429 18.5133 6.449 18.6048 6.41137L21.5952 5.20908C21.7476 5.15254 21.9188 5.21366 22.0006 5.35426L24.4076 9.51678C24.4898 9.65737 24.4586 9.83674 24.3337 9.94123L21.7815 11.9267C21.7055 11.9857 21.6659 12.0803 21.6774 12.1758C21.7276 12.5563 21.7542 12.9395 21.7569 13.3233C21.7532 13.707 21.7259 14.0902 21.6747 14.4707C21.6633 14.5663 21.7028 14.6608 21.7788 14.7198L24.3202 16.708C24.4439 16.8105 24.4762 16.9872 24.3968 17.1271L21.9869 21.3005C21.9118 21.4409 21.7431 21.5022 21.5953 21.4428L18.5829 20.2378H18.583C18.4919 20.1994 18.3873 20.2132 18.3091 20.2735C17.7021 20.7393 17.0375 21.1249 16.332 21.421C16.2425 21.4577 16.179 21.5389 16.1649 21.6346L15.7322 24.8248C15.7114 24.9835 15.5746 25.1014 15.4146 25.0987H10.5867C10.4213 25.1087 10.2765 24.9891 10.2553 24.8248L9.80887 21.6346C9.79492 21.5389 9.73132 21.4577 9.64191 21.421C8.93573 21.1289 8.2717 20.744 7.66733 20.2762C7.58978 20.2149 7.4851 20.2002 7.3936 20.2378L4.40872 21.4401C4.25628 21.4969 4.08513 21.4355 4.00337 21.2949L1.5963 17.1324C1.51416 16.9918 1.5453 16.8127 1.67023 16.708L1.66732 16.7079Z"/>
</mask>
<path d="M1.11968 17.4008L3.52674 21.5633C3.63085 21.7461 3.79665 21.8857 3.99436 21.9572C4.19226 22.0284 4.40907 22.0267 4.60582 21.9522L7.46195 20.8047C8.02852 21.2286 8.64247 21.5852 9.29134 21.8672L9.72667 24.9014V24.9016C9.75533 25.1088 9.85829 25.2987 10.0165 25.4359C10.1746 25.5728 10.3773 25.6477 10.5866 25.6464H15.4063C15.6176 25.6512 15.8231 25.5782 15.9841 25.4414C16.1451 25.3046 16.2504 25.1134 16.2798 24.9043L16.7152 21.8646H16.7153C17.362 21.58 17.9747 21.2235 18.5419 20.8021L21.4036 21.9523C21.5983 22.0285 21.8139 22.0315 22.0109 21.961C22.2076 21.8906 22.3723 21.7513 22.4743 21.5689L24.8869 17.3928V17.3926C24.9893 17.211 25.0236 16.9989 24.9839 16.7944C24.9444 16.5896 24.8332 16.4058 24.6706 16.2754L22.2498 14.3831C22.34 13.6794 22.34 12.9673 22.2498 12.2636L24.6706 10.3685C24.8332 10.2368 24.9438 10.0516 24.9824 9.84599C25.021 9.64027 24.9852 9.42747 24.8815 9.24583L22.4745 5.08331H22.4743C22.3705 4.90107 22.2051 4.76182 22.0078 4.69057C21.8107 4.61932 21.5944 4.62066 21.398 4.69439L18.5337 5.84186C17.9671 5.41798 17.3532 5.06154 16.7043 4.77938L16.2799 1.74501C16.251 1.53546 16.1461 1.34368 15.9849 1.20612C15.8239 1.06878 15.618 0.995616 15.4063 1.0002H10.5867C10.3773 0.998102 10.1743 1.07222 10.0155 1.2088C9.85675 1.34537 9.75323 1.53506 9.72401 1.74231L9.28867 4.78201H9.28848C8.64186 5.06682 8.02927 5.42306 7.46192 5.84449L4.60022 4.69433C4.40519 4.61735 4.18895 4.61391 3.99145 4.6844C3.79412 4.75488 3.62889 4.89471 3.5267 5.07771L1.11963 9.24292C1.01342 9.42458 0.976175 9.63833 1.01495 9.84499C1.05373 10.0519 1.16567 10.2377 1.33052 10.3684L3.75133 12.2606V12.2608C3.6604 12.9643 3.6604 13.6766 3.75133 14.3804L1.33052 16.2782C1.16777 16.4098 1.05736 16.5951 1.01858 16.8006C0.979996 17.0064 1.01591 17.2192 1.11963 17.4008L1.11968 17.4008ZM1.66732 16.7079L4.20867 14.7198C4.2847 14.6608 4.32424 14.5662 4.31278 14.4707C4.26158 14.0902 4.23407 13.707 4.23064 13.3232C4.23407 12.9395 4.26158 12.5563 4.31278 12.1758C4.32424 12.0803 4.2847 11.9857 4.20867 11.9267L1.67021 9.93855C1.54203 9.83846 1.50898 9.65832 1.59342 9.51945L4.00601 5.34339C4.08204 5.20394 4.24994 5.143 4.3976 5.20088L7.41001 6.40586C7.50094 6.44425 7.60562 6.43069 7.68375 6.37033C8.29022 5.90481 8.95366 5.51935 9.65833 5.22286C9.74773 5.18619 9.81134 5.105 9.82528 5.0093L10.2553 1.82172C10.2761 1.66299 10.4129 1.54513 10.5729 1.5478H15.3926C15.5611 1.53328 15.7108 1.65401 15.7322 1.82172L16.1895 5.01483C16.2037 5.11053 16.2671 5.19171 16.3567 5.22839C17.0627 5.52027 17.7267 5.90538 18.3311 6.37297C18.4086 6.43429 18.5133 6.449 18.6048 6.41137L21.5952 5.20908C21.7476 5.15254 21.9188 5.21366 22.0006 5.35426L24.4076 9.51678C24.4898 9.65737 24.4586 9.83674 24.3337 9.94123L21.7815 11.9267C21.7055 11.9857 21.6659 12.0803 21.6774 12.1758C21.7276 12.5563 21.7542 12.9395 21.7569 13.3233C21.7532 13.707 21.7259 14.0902 21.6747 14.4707C21.6633 14.5663 21.7028 14.6608 21.7788 14.7198L24.3202 16.708C24.4439 16.8105 24.4762 16.9872 24.3968 17.1271L21.9869 21.3005C21.9118 21.4409 21.7431 21.5022 21.5953 21.4428L18.5829 20.2378H18.583C18.4919 20.1994 18.3873 20.2132 18.3091 20.2735C17.7021 20.7393 17.0375 21.1249 16.332 21.421C16.2425 21.4577 16.179 21.5389 16.1649 21.6346L15.7322 24.8248C15.7114 24.9835 15.5746 25.1014 15.4146 25.0987H10.5867C10.4213 25.1087 10.2765 24.9891 10.2553 24.8248L9.80887 21.6346C9.79492 21.5389 9.73132 21.4577 9.64191 21.421C8.93573 21.1289 8.2717 20.744 7.66733 20.2762C7.58978 20.2149 7.4851 20.2002 7.3936 20.2378L4.40872 21.4401C4.25628 21.4969 4.08513 21.4355 4.00337 21.2949L1.5963 17.1324C1.51416 16.9918 1.5453 16.8127 1.67023 16.708L1.66732 16.7079Z" fill="white"/>
<path d="M1.11968 17.4008L3.52674 21.5633C3.63085 21.7461 3.79665 21.8857 3.99436 21.9572C4.19226 22.0284 4.40907 22.0267 4.60582 21.9522L7.46195 20.8047C8.02852 21.2286 8.64247 21.5852 9.29134 21.8672L9.72667 24.9014V24.9016C9.75533 25.1088 9.85829 25.2987 10.0165 25.4359C10.1746 25.5728 10.3773 25.6477 10.5866 25.6464H15.4063C15.6176 25.6512 15.8231 25.5782 15.9841 25.4414C16.1451 25.3046 16.2504 25.1134 16.2798 24.9043L16.7152 21.8646H16.7153C17.362 21.58 17.9747 21.2235 18.5419 20.8021L21.4036 21.9523C21.5983 22.0285 21.8139 22.0315 22.0109 21.961C22.2076 21.8906 22.3723 21.7513 22.4743 21.5689L24.8869 17.3928V17.3926C24.9893 17.211 25.0236 16.9989 24.9839 16.7944C24.9444 16.5896 24.8332 16.4058 24.6706 16.2754L22.2498 14.3831C22.34 13.6794 22.34 12.9673 22.2498 12.2636L24.6706 10.3685C24.8332 10.2368 24.9438 10.0516 24.9824 9.84599C25.021 9.64027 24.9852 9.42747 24.8815 9.24583L22.4745 5.08331H22.4743C22.3705 4.90107 22.2051 4.76182 22.0078 4.69057C21.8107 4.61932 21.5944 4.62066 21.398 4.69439L18.5337 5.84186C17.9671 5.41798 17.3532 5.06154 16.7043 4.77938L16.2799 1.74501C16.251 1.53546 16.1461 1.34368 15.9849 1.20612C15.8239 1.06878 15.618 0.995616 15.4063 1.0002H10.5867C10.3773 0.998102 10.1743 1.07222 10.0155 1.2088C9.85675 1.34537 9.75323 1.53506 9.72401 1.74231L9.28867 4.78201H9.28848C8.64186 5.06682 8.02927 5.42306 7.46192 5.84449L4.60022 4.69433C4.40519 4.61735 4.18895 4.61391 3.99145 4.6844C3.79412 4.75488 3.62889 4.89471 3.5267 5.07771L1.11963 9.24292C1.01342 9.42458 0.976175 9.63833 1.01495 9.84499C1.05373 10.0519 1.16567 10.2377 1.33052 10.3684L3.75133 12.2606V12.2608C3.6604 12.9643 3.6604 13.6766 3.75133 14.3804L1.33052 16.2782C1.16777 16.4098 1.05736 16.5951 1.01858 16.8006C0.979996 17.0064 1.01591 17.2192 1.11963 17.4008L1.11968 17.4008ZM1.66732 16.7079L4.20867 14.7198C4.2847 14.6608 4.32424 14.5662 4.31278 14.4707C4.26158 14.0902 4.23407 13.707 4.23064 13.3232C4.23407 12.9395 4.26158 12.5563 4.31278 12.1758C4.32424 12.0803 4.2847 11.9857 4.20867 11.9267L1.67021 9.93855C1.54203 9.83846 1.50898 9.65832 1.59342 9.51945L4.00601 5.34339C4.08204 5.20394 4.24994 5.143 4.3976 5.20088L7.41001 6.40586C7.50094 6.44425 7.60562 6.43069 7.68375 6.37033C8.29022 5.90481 8.95366 5.51935 9.65833 5.22286C9.74773 5.18619 9.81134 5.105 9.82528 5.0093L10.2553 1.82172C10.2761 1.66299 10.4129 1.54513 10.5729 1.5478H15.3926C15.5611 1.53328 15.7108 1.65401 15.7322 1.82172L16.1895 5.01483C16.2037 5.11053 16.2671 5.19171 16.3567 5.22839C17.0627 5.52027 17.7267 5.90538 18.3311 6.37297C18.4086 6.43429 18.5133 6.449 18.6048 6.41137L21.5952 5.20908C21.7476 5.15254 21.9188 5.21366 22.0006 5.35426L24.4076 9.51678C24.4898 9.65737 24.4586 9.83674 24.3337 9.94123L21.7815 11.9267C21.7055 11.9857 21.6659 12.0803 21.6774 12.1758C21.7276 12.5563 21.7542 12.9395 21.7569 13.3233C21.7532 13.707 21.7259 14.0902 21.6747 14.4707C21.6633 14.5663 21.7028 14.6608 21.7788 14.7198L24.3202 16.708C24.4439 16.8105 24.4762 16.9872 24.3968 17.1271L21.9869 21.3005C21.9118 21.4409 21.7431 21.5022 21.5953 21.4428L18.5829 20.2378H18.583C18.4919 20.1994 18.3873 20.2132 18.3091 20.2735C17.7021 20.7393 17.0375 21.1249 16.332 21.421C16.2425 21.4577 16.179 21.5389 16.1649 21.6346L15.7322 24.8248C15.7114 24.9835 15.5746 25.1014 15.4146 25.0987H10.5867C10.4213 25.1087 10.2765 24.9891 10.2553 24.8248L9.80887 21.6346C9.79492 21.5389 9.73132 21.4577 9.64191 21.421C8.93573 21.1289 8.2717 20.744 7.66733 20.2762C7.58978 20.2149 7.4851 20.2002 7.3936 20.2378L4.40872 21.4401C4.25628 21.4969 4.08513 21.4355 4.00337 21.2949L1.5963 17.1324C1.51416 16.9918 1.5453 16.8127 1.67023 16.708L1.66732 16.7079Z" stroke="white" mask="url(#path-1-outside-1_132_14965)"/>
<path d="M12.8912 19.345L12.8923 19.346L12.9935 19.3461C14.591 19.3469 16.1234 18.7129 17.2534 17.5837C18.3834 16.4547 19.0186 14.9228 19.0191 13.3254V13.3254C19.0195 11.7279 18.3854 10.1955 17.256 9.06574C16.1268 7.93592 14.5948 7.30099 12.9972 7.30078C11.3997 7.30038 9.86753 7.93495 8.73797 9.06431L8.73796 9.06433C7.60836 10.1939 6.97363 11.7259 6.97363 13.3234L6.97363 13.3237C6.97583 14.9198 7.61072 16.4498 8.73905 17.5786C9.84333 18.6835 11.3321 19.3157 12.8912 19.345ZM9.4792 9.80831C10.4072 8.8798 11.6639 8.35538 12.9761 8.34868L12.9938 8.34867C14.3133 8.34794 15.5792 8.87156 16.5126 9.80426L16.5126 9.80429C17.4462 10.737 17.9709 12.0023 17.9713 13.3218V13.3219C17.9718 14.6416 17.448 15.9073 16.5152 16.8405L16.5152 16.8405C15.5823 17.7739 14.3168 18.2984 12.9972 18.2986C11.6777 18.2988 10.412 17.7748 9.47876 16.8418C8.54572 15.9087 8.02136 14.6432 8.02133 13.3237C8.02282 12.0051 8.54703 10.741 9.4792 9.80831Z" fill="white" stroke="white" stroke-width="0.5"/>
</svg>
