<svg width="inherit" height="inherit" viewBox="0 0 92 91" fill="inherit" xmlns="http://www.w3.org/2000/svg">
<path d="M68.095 29.6338C67.8279 29.3659 67.465 29.2147 67.0868 29.2147C66.7085 29.2147 66.3457 29.3659 66.0785 29.6338L41.7461 53.968L29.8112 42.0331C29.5447 41.7645 29.1819 41.6133 28.8036 41.6133C28.4253 41.6133 28.0625 41.7645 27.7953 42.0331L24.7711 45.0573C24.5032 45.3238 24.3521 45.6866 24.3521 46.0648C24.3521 46.4431 24.5032 46.8059 24.7711 47.0731L40.6975 62.9392C40.9647 63.2064 41.3282 63.3548 41.7058 63.352H41.8063C42.1846 63.3548 42.5474 63.2064 42.8146 62.9392L71.0998 34.6432C71.3677 34.3767 71.5189 34.0139 71.5189 33.6356C71.5189 33.2574 71.3677 32.8946 71.0998 32.6274L68.095 29.6338Z" fill="#257062"/>
<path d="M46 0.0399748C33.9695 0.0399748 22.4326 4.81915 13.9258 13.3256C5.41932 21.832 0.640137 33.3704 0.640137 45.3998C0.640137 57.4292 5.41932 68.9672 13.9258 77.474C22.4322 85.9804 33.9706 90.7596 46 90.7596C58.0294 90.7596 69.5673 85.9804 78.0741 77.474C86.5806 68.9676 91.3598 57.4292 91.3598 45.3998C91.3598 37.4377 89.2637 29.6154 85.2826 22.7198C81.3015 15.8242 75.5752 10.098 68.6798 6.11696C61.7841 2.1359 53.9619 0.0397949 45.9998 0.0397949L46 0.0399748ZM74.0619 73.462C67.1046 80.4004 57.8134 84.4996 47.998 84.9616C38.1831 85.4236 28.549 82.2145 20.9692 75.9602C13.3908 69.7059 8.412 60.8542 7.00368 51.1292C5.59532 41.4043 7.85727 31.5038 13.3501 23.357C18.8423 15.2098 27.1714 9.39926 36.7141 7.0571C46.2563 4.71494 56.3287 6.00944 64.9687 10.6888C73.6094 15.3673 80.1983 23.0962 83.4511 32.368C86.7044 41.6394 86.3894 51.79 82.568 60.8422C80.5754 65.5594 77.6862 69.8458 74.0601 73.4618L74.0619 73.462Z" fill="#257062"/>
</svg>
