<svg width="18" height="18" viewBox="0 0 18 18" fill="none" xmlns="http://www.w3.org/2000/svg">
<path d="M6.75 7.5C7.57843 7.5 8.25 6.82843 8.25 6C8.25 5.17157 7.57843 4.5 6.75 4.5C5.92157 4.5 5.25 5.17157 5.25 6C5.25 6.82843 5.92157 7.5 6.75 7.5Z" stroke="#6F6F6F" stroke-width="1.5" stroke-linecap="round" stroke-linejoin="round"/>
<path d="M9.75 1.5H6.75C3 1.5 1.5 3 1.5 6.75V11.25C1.5 15 3 16.5 6.75 16.5H11.25C15 16.5 16.5 15 16.5 11.25V7.5" stroke="#6F6F6F" stroke-width="1.5" stroke-linecap="round" stroke-linejoin="round"/>
<path d="M11.8125 3.75H15.9375" stroke="#6F6F6F" stroke-width="1.5" stroke-linecap="round"/>
<path d="M13.875 5.8125V1.6875" stroke="#6F6F6F" stroke-width="1.5" stroke-linecap="round"/>
<path d="M2.00195 14.2124L5.69945 11.7299C6.29195 11.3324 7.14695 11.3774 7.67945 11.8349L7.92695 12.0524C8.51195 12.5549 9.45695 12.5549 10.042 12.0524L13.162 9.37492C13.747 8.87242 14.692 8.87242 15.277 9.37492L16.4995 10.4249" stroke="#6F6F6F" stroke-width="1.5" stroke-linecap="round" stroke-linejoin="round"/>
</svg>
