<svg viewBox="0 0 139 107" fill="inherit" xmlns="http://www.w3.org/2000/svg">
<path fill-rule="evenodd" clip-rule="evenodd" d="M0 53.6039C0 51.2831 1.92153 49.4233 4.2411 49.499L11.1248 49.7238C11.1806 49.2227 11.2758 48.5971 11.4126 47.7973C11.5892 46.7653 11.7269 45.6385 11.7188 45.2933C11.688 43.9971 11.0677 41.7976 10.3014 40.2682C9.86887 39.4051 8.59195 37.5054 7.98625 36.824C7.75206 36.5605 7.5714 36.3137 7.58473 36.2755C7.63113 36.1425 9.08803 37.3579 9.68765 38.0297C10.8427 39.3242 11.6853 40.7945 12.2429 42.489L12.3864 42.9249L12.5826 42.2545C13.1161 40.4325 11.8957 36.5114 10.0317 34.0582C9.23065 33.0039 7.85042 31.6328 6.75963 30.8077C6.29789 30.4586 5.92815 30.1499 5.93788 30.1218C5.94762 30.0936 6.36631 30.2831 6.86838 30.5428C9.21291 31.7554 11.2772 33.8485 12.4582 36.2104C12.9044 37.1025 13.3347 38.271 13.4269 38.8408C13.4474 38.968 13.7478 38.3452 14.0943 37.4568L14.7244 35.8417L14.1899 34.6181C12.8132 31.4665 12.9198 28.516 14.5196 25.4998C14.7495 25.0663 15.0489 24.2347 15.1848 23.6519C15.5481 22.0939 16.2929 19.6861 16.7813 18.4902C17.4723 16.7984 17.4721 16.8838 16.7762 20.1376C16.4916 21.4685 16.1738 23.0492 16.07 23.6502L15.8814 24.7429L16.3269 25.632C16.8652 26.7064 17.3013 28.1382 17.4152 29.2056C17.4614 29.639 17.5371 29.9377 17.5832 29.8693C17.8874 29.4183 18.3149 28.6332 18.3587 28.4454C18.3871 28.3226 18.3263 28.0541 18.2234 27.8488C17.9834 27.3698 17.5896 25.512 17.5215 24.5376C17.3708 22.3845 18.096 20.0214 19.5467 17.938C19.7778 17.606 20.1178 16.9907 20.3022 16.5707C20.815 15.4026 21.8411 13.4276 22.5088 12.3232C23.1825 11.209 23.8043 10.3522 23.7819 10.5689C23.7738 10.6476 23.4273 11.4683 23.0121 12.3925C22.5968 13.3167 21.9818 14.7623 21.6454 15.6049L21.0337 17.1369L21.3444 18.0858C21.8668 19.6813 22.0558 21.4937 21.8455 22.8903C21.8027 23.1738 21.8009 23.3871 21.8413 23.3642C21.8817 23.3413 22.226 22.8965 22.6065 22.3758L23.2982 21.4289L23.1149 20.4414C22.5204 17.2383 23.2481 14.2909 25.236 11.8511C25.5373 11.4814 26.1007 10.6938 26.4881 10.1011C27.4333 8.6547 28.5576 7.20222 29.8274 5.7873C30.7412 4.76897 31.6933 3.8867 31.6163 4.12973C31.6024 4.17383 31.0368 4.98584 30.3594 5.93423C28.5366 8.48636 27.5244 10.0849 27.5423 10.3832C27.551 10.5286 27.6238 11.0157 27.7042 11.4655C27.9882 13.0537 27.8658 15.0149 27.3861 16.5644C27.2862 16.887 27.2636 17.0924 27.3359 17.0211C27.4083 16.9498 27.7911 16.5736 28.1866 16.1852C28.8657 15.5186 28.9024 15.4546 28.842 15.043C28.7316 14.2902 28.8173 12.4099 29.0046 11.4769C29.5089 8.96397 30.8204 6.92429 33.1305 5.06071C33.464 4.7917 34.1375 4.19507 34.6272 3.73476C35.7369 2.69188 38.0047 0.919724 39.0037 0.314796C39.962 -0.265411 39.8488 -0.0674896 38.5501 1.10846C38.005 1.60198 36.9027 2.65353 36.1008 3.44525L34.6424 4.8847L34.6827 5.66611C34.7716 7.39227 34.2731 9.60696 33.4711 11.0489C33.2057 11.5261 33.0311 11.8952 33.0833 11.869C33.1355 11.8428 33.5402 11.544 33.9827 11.2051C34.5894 10.7403 34.8823 10.4255 35.1744 9.92399C35.7655 8.90884 36.6183 7.84118 37.4852 7.03088C38.1605 6.39968 38.4641 6.19881 39.6777 5.58077C41.1791 4.81606 42.2715 4.49213 43.8644 4.33935C44.4578 4.28241 44.9445 4.11677 46.5816 3.4146C48.6959 2.5079 51.3144 1.56866 52.2991 1.36393C52.8204 1.25547 52.4128 1.47314 48.932 3.16242L44.972 5.08437L44.6438 5.66158C44.1733 6.48875 43.1917 7.73312 42.4906 8.39091C40.8468 9.93317 38.9141 10.7915 36.2678 11.1548L35.1979 11.3017L34.3149 12.0762C33.8293 12.502 32.7352 13.5183 31.8835 14.3346C30.3852 15.7705 29.0113 17.1832 27.7362 18.6046C23.4407 23.826 18.5594 30.7943 16.2367 37.7626C13.8548 44.9082 13.9188 48.2627 14.545 49.8354L126.885 53.5033L126.963 50.7518C126.985 49.9835 127.625 49.3783 128.394 49.4002C129.162 49.422 129.767 50.0626 129.745 50.8309L129.667 53.5942L136.36 53.8127C137.412 53.847 138.246 54.7093 138.246 55.7613C138.246 56.8381 137.373 57.711 136.297 57.711H129.55L129.471 60.4966C129.449 61.2649 128.808 61.87 128.04 61.8482C127.271 61.8264 126.666 61.1858 126.688 60.4175L126.765 57.711L112.925 57.711V64.5393C115.404 65.8962 117.37 67.8613 118.82 70.4347C120.317 72.9613 121.066 76.0727 121.066 79.769C121.066 83.2782 120.341 86.3896 118.89 89.1033C117.44 91.8171 115.311 93.946 112.504 95.49C109.696 97.034 106.327 97.806 102.397 97.806L99.9408 97.6657V86.7171L101.836 86.8575C103.707 86.8575 105.228 86.2492 106.398 85.0327C107.567 83.8162 108.152 82.1318 108.152 79.9796C108.152 78.108 107.684 76.6108 106.749 75.4878C105.813 74.3649 104.503 73.8034 102.818 73.8034C100.947 73.8034 99.5665 74.4585 98.6775 75.7686C97.8353 77.0787 97.4142 78.6929 97.4142 80.6112V82.5061L86.957 82.5061V80.6112C86.957 78.6461 86.5359 77.0319 85.6937 75.7686C84.8515 74.4585 83.4946 73.8034 81.6231 73.8034C79.8919 73.8034 78.5584 74.3649 77.6226 75.4878C76.6869 76.564 76.219 78.0612 76.219 79.9796C76.219 82.1318 76.8038 83.8162 77.9735 85.0327C79.1433 86.2492 80.6639 86.8575 82.5354 86.8575L84.4304 86.7171V97.6657L81.974 97.806C78.0437 97.806 74.6749 97.034 71.8676 95.49C69.0603 93.946 66.9314 91.8171 65.481 89.1033C64.0305 86.3896 63.3053 83.2782 63.3053 79.769C63.3053 75.9791 64.0539 72.7975 65.5511 70.2241C67.0952 67.6507 69.1071 65.7558 71.5869 64.5393C74.1135 63.276 76.8272 62.6444 79.7281 62.6444C85.5299 62.6444 89.6473 65.0774 92.0803 69.9434H92.2909C93.9753 66.3874 96.7124 64.1182 100.502 63.1356V57.711L52.2877 57.711V70.3645L40.3565 70.3645C39.374 70.3645 38.5552 70.575 37.9001 70.9961C37.2919 71.4172 36.9878 72.0957 36.9878 73.0314C36.9878 73.8736 37.3621 74.5755 38.1107 75.1369C39.2336 75.0434 40.0992 74.9966 40.7075 74.9966C45.8074 74.9966 49.7611 76.2365 52.5684 78.7163C55.3757 81.1493 56.9899 84.4245 57.411 88.5419H45.2694C45.0822 87.5593 44.5441 86.7171 43.6552 86.0153C42.813 85.3135 41.7134 84.9625 40.3565 84.9625C38.9529 84.9625 37.7364 85.4772 36.707 86.5066C35.6777 87.4891 35.163 88.8928 35.163 90.7176C35.163 92.6359 35.6543 94.1097 36.6368 95.1391C37.6662 96.1216 38.9061 96.6129 40.3565 96.6129C41.6198 96.6129 42.696 96.3088 43.585 95.7005C44.474 95.0455 45.0354 94.2501 45.2694 93.3143H57.411C57.0835 97.5253 55.3523 100.847 52.2175 103.28C49.0826 105.76 45.129 107 40.3565 107C36.8474 107 33.7593 106.322 31.0924 104.965C28.4722 103.655 26.4369 101.76 24.9865 99.2799C23.536 96.8001 22.8108 93.8992 22.8108 90.5772C22.8108 85.2901 24.7993 81.2195 28.7764 78.3653C27.3727 77.4296 26.2966 76.3066 25.5479 74.9966C24.7993 73.6397 24.425 72.1191 24.425 70.4347C24.425 67.7677 25.431 65.6154 27.4429 63.9778C29.4548 62.2934 32.2153 61.4512 35.7245 61.4512H40.2162V57.711L14.5911 57.711L13.9291 63.7418L17.6283 63.7418C18.3969 63.7418 19.02 64.3649 19.02 65.1335C19.02 65.9022 18.3969 66.5253 17.6283 66.5253H13.6236L12.758 74.4119C10.7967 74.4119 9.16791 72.8979 9.02478 70.9418L8.70162 66.5253H5.56654C4.79791 66.5253 4.1748 65.9022 4.1748 65.1335C4.1748 64.3649 4.7979 63.7418 5.56654 63.7418H8.49795L8.05667 57.711H4.10707C1.83879 57.711 0 55.8722 0 53.6039ZM44.1677 12.9734C45.781 12.0546 48.398 10.189 49.5236 9.15545C49.8533 8.85262 49.8582 8.8345 49.5832 8.93148C49.4186 8.98954 48.304 9.61931 47.1064 10.331C45.9087 11.0426 44.439 11.8713 43.8402 12.1727L42.7516 12.7204L41.5627 12.5244C40.9089 12.4167 40.0037 12.3257 39.5513 12.322C36.6211 12.2986 34.0168 13.4404 31.5967 15.8096L31.0403 16.3543L31.4882 16.508C32.2568 16.7715 34.0358 17.0223 35.1287 17.0211C37.8112 17.0181 40.0076 16.1622 42.303 14.2254C42.6841 13.9038 43.5232 13.3404 44.1677 12.9734ZM37.0584 19.5216C38.6657 18.7102 41.6072 16.8219 43.1609 15.6039C44.0956 14.8713 44.0376 14.6793 43.0615 15.2747C42.6615 15.5188 41.1427 16.3565 39.6864 17.1363L37.0383 18.5542L35.9245 18.3851C34.564 18.1786 32.8055 18.2136 31.5339 18.4726C30.3531 18.7131 28.3428 19.6907 27.318 20.5229C26.5766 21.1248 25.1664 22.5549 25.1491 22.7223C25.1303 22.9049 27.3881 23.2221 28.5949 23.2065C30.5765 23.1809 31.2736 23.0057 33.1372 22.0644C34.481 21.3857 34.8835 21.1343 35.4984 20.5905C35.9672 20.1758 36.5403 19.7831 37.0584 19.5216ZM33.027 24.8505C35.1786 23.3895 37.4816 21.6139 38.3648 20.735C38.6571 20.4441 38.6578 20.4353 38.3808 20.5359C38.2215 20.5937 36.9665 21.3528 35.5922 22.2228L35.4979 22.2825C33.0035 23.8614 32.4738 24.1966 31.9323 24.2169C31.7864 24.2224 31.6396 24.205 31.4533 24.1829L31.4531 24.1829L31.4271 24.1798C31.0175 24.1314 30.1517 24.1088 29.5035 24.1298C26.7376 24.219 24.4853 25.1617 22.4965 27.0623C21.6368 27.8839 20.6535 29.0392 20.7129 29.1578C20.7363 29.2044 21.2085 29.2942 21.7623 29.3572C25.2562 29.7549 28.0991 28.8844 30.6418 26.6382C31.0937 26.2389 32.1671 25.4345 33.027 24.8505ZM28.947 30.2715C30.4187 29.2499 32.2133 27.8565 33.2033 26.9666C34.005 26.2459 34.2834 25.7875 33.6337 26.2574C33.0281 26.6957 29.7468 28.7947 28.6499 29.4456C27.5475 30.0998 27.5325 30.1052 26.5858 30.1794C24.8405 30.3164 23.6916 30.6373 22.1701 31.4126C21.0089 32.0044 20.6991 32.2108 20.0165 32.8483C19.5779 33.2577 18.9698 33.9143 18.6651 34.3073C18.0098 35.1524 17.1852 36.4938 17.2462 36.6154C17.3037 36.7302 18.9638 36.6707 19.9481 36.5188C23.0858 36.0342 25.6356 34.4013 27.3955 31.7494C27.8164 31.1152 28.044 30.8984 28.947 30.2715ZM24.2432 44.9602C25.0296 44.099 25.3454 43.2212 25.2571 42.1406C25.1965 41.3992 24.6115 40.1846 24.0074 39.546C22.5156 37.9692 19.7794 37.6301 17.5426 38.7448C17.1081 38.9614 17.0595 39.0407 16.6419 40.2146L16.2005 41.4553L16.6888 40.8669C17.2623 40.1759 18.3827 39.4798 19.3282 39.227C20.7652 38.843 22.2506 39.1208 23.3574 39.981C24.1135 40.5687 24.7374 41.7467 24.7558 42.6215C24.7681 43.2035 24.48 44.2341 24.1059 44.9475L23.9049 45.3306L24.2432 44.9602ZM18.8281 41.341C19.5459 40.9765 20.3863 40.5953 20.6956 40.4938C21.3776 40.2699 21.1349 40.2237 20.0776 40.3762C18.5277 40.5996 16.763 41.4807 16.083 42.3707C15.9338 42.566 15.6834 43.2442 15.5264 43.8777C15.3696 44.5114 15.2902 44.9515 15.3503 44.8556C15.4103 44.7598 15.6514 44.36 15.8858 43.9672C16.1203 43.5745 16.5846 42.972 16.9176 42.6283C17.4388 42.0906 17.7044 41.9116 18.8281 41.341Z" fill="#623E13"/>
</svg>
