<svg width="34" height="34" viewBox="0 0 34 34" fill="none" xmlns="http://www.w3.org/2000/svg">
<path fill-rule="evenodd" clip-rule="evenodd" d="M9.98775 0.467529H24.3981C30.0564 0.467529 33.8273 4.50578 33.8273 10.3003V23.8852C33.8273 29.6801 30.0562 33.7197 24.3981 33.7197H9.98775C4.3323 33.7197 0.575195 29.6833 0.575195 23.8852V10.3003C0.575195 4.50864 4.34327 0.467529 9.98775 0.467529ZM24.3996 2.96794H9.98925C5.76512 2.96794 3.0756 5.85234 3.0756 10.3004V23.8853C3.0756 28.3407 5.7552 31.2195 9.98925 31.2195H24.3996C28.638 31.2195 31.3299 28.336 31.3299 23.8853V10.3004C31.3299 5.85024 28.6384 2.96794 24.3996 2.96794ZM19.7485 17.8564C21.2237 16.0597 23.8802 15.8779 25.5842 17.3986L25.8009 17.6066L29.2594 21.177C29.7397 21.6728 29.7273 22.4642 29.2318 22.9447C28.7813 23.3816 28.0866 23.411 27.6032 23.0403L27.465 22.9171L24.0067 19.3468C23.4042 18.7251 22.4247 18.7193 21.8132 19.2996L21.679 19.4439L17.9662 23.9621C16.6529 25.5627 14.29 25.7342 12.7612 24.3928L12.558 24.2005L11.0763 22.6878C10.6871 22.2836 10.0664 22.2454 9.63417 22.5715L9.49764 22.6937L6.95042 25.3824C6.47569 25.8834 5.68487 25.9046 5.18406 25.4296C4.72878 24.9978 4.66992 24.3046 5.01965 23.8057L5.13684 23.6623L7.68352 20.9742C9.02422 19.5573 11.232 19.4818 12.6602 20.7457L12.8684 20.9453L14.3426 22.4504C14.7736 22.8902 15.4643 22.9014 15.9097 22.5057L16.0354 22.3749L19.7485 17.8564ZM11.5044 8.18392C9.20178 8.18392 7.33452 10.0537 7.33452 12.3577C7.33452 14.6618 9.20178 16.5315 11.5044 16.5315C13.807 16.5315 15.6759 14.6617 15.6759 12.3577C15.6759 10.0538 13.807 8.18392 11.5044 8.18392ZM11.5059 10.6843C12.4284 10.6843 13.1785 11.4348 13.1785 12.3579C13.1785 13.2809 12.4284 14.0314 11.5059 14.0314C10.5838 14.0314 9.83492 13.2815 9.83492 12.3579C9.83492 11.4342 10.5838 10.6843 11.5059 10.6843Z" fill="#276B9C"/>
</svg>
