<svg viewBox="0 0 32 32" fill="inherit" xmlns="http://www.w3.org/2000/svg">
<circle cx="16" cy="16" r="16" fill="#F8F8F8"/>
<g clip-path="url(#clip0_258_223)">
<path d="M14.8652 17.8829C14.8652 18.3254 14.7776 18.7023 14.6026 19.0135C14.4324 19.3296 14.1965 19.5703 13.895 19.7356C13.5935 19.9058 13.2483 19.9982 12.8593 20.0128V19.1886C13.1948 19.1691 13.4695 19.0573 13.6835 18.853C13.9023 18.6439 14.0117 18.3132 14.0117 17.861V13.6012H14.8652V17.8829ZM15.655 18.9114L18.0038 13.3823H18.0548L20.4036 18.9114H19.4261L17.7703 14.7172L18.3831 14.3014L16.4938 18.9114H15.655ZM17.1284 16.9419H18.9447L19.2365 17.6641H16.8731L17.1284 16.9419ZM24.0961 14.6807C23.9064 14.5834 23.7046 14.5008 23.4906 14.4327C23.2767 14.3598 23.0724 14.3233 22.8779 14.3233C22.6153 14.3233 22.4062 14.3816 22.2506 14.4983C22.0999 14.6151 22.0245 14.7755 22.0245 14.9798C22.0245 15.1257 22.078 15.2545 22.185 15.3664C22.292 15.4733 22.4281 15.5682 22.5935 15.6508C22.7588 15.7286 22.9339 15.804 23.1186 15.877C23.2791 15.9353 23.4372 16.0058 23.5928 16.0885C23.7532 16.1663 23.8967 16.2636 24.0231 16.3803C24.1496 16.497 24.2493 16.6429 24.3222 16.8179C24.4 16.9881 24.4389 17.1997 24.4389 17.4525C24.4389 17.7297 24.3684 17.985 24.2274 18.2184C24.0863 18.447 23.8845 18.6293 23.6219 18.7655C23.3594 18.9017 23.0384 18.9697 22.6591 18.9697C22.4403 18.9697 22.2239 18.9454 22.0099 18.8968C21.8008 18.8482 21.6014 18.7825 21.4118 18.6998C21.2221 18.6123 21.0471 18.5151 20.8866 18.4081L21.2659 17.7443C21.3826 17.8318 21.5163 17.9121 21.6671 17.985C21.8178 18.0579 21.9734 18.1163 22.1339 18.1601C22.2944 18.199 22.4451 18.2184 22.5862 18.2184C22.7369 18.2184 22.8852 18.1941 23.0311 18.1455C23.1819 18.0969 23.3059 18.0166 23.4031 17.9048C23.5052 17.7929 23.5563 17.6446 23.5563 17.4598C23.5563 17.3091 23.5125 17.1802 23.425 17.0732C23.3375 16.9662 23.2232 16.8738 23.0822 16.796C22.946 16.7134 22.7953 16.6404 22.6299 16.5772C22.4646 16.514 22.2944 16.4435 22.1193 16.3657C21.9491 16.2879 21.7911 16.193 21.6452 16.0812C21.4993 15.9645 21.3802 15.8235 21.2878 15.6581C21.1954 15.4928 21.1492 15.2886 21.1492 15.0454C21.1492 14.7536 21.2173 14.5008 21.3534 14.2868C21.4896 14.0728 21.6768 13.9026 21.9151 13.7762C22.1582 13.6498 22.4378 13.5817 22.7539 13.572C23.1284 13.572 23.4469 13.6182 23.7095 13.7106C23.9769 13.7981 24.2128 13.9051 24.417 14.0315L24.0961 14.6807Z" fill="#B649D5"/>
<path d="M7.82605 22.5771C7.67093 22.5771 7.53 22.5448 7.40332 22.4801C7.27922 22.4155 7.18097 22.3198 7.10859 22.1932C7.0362 22.0639 7 21.9049 7 21.7161C7 21.5274 7.03749 21.371 7.11248 21.2391C7.19004 21.1047 7.29087 21.0013 7.41497 20.9289C7.54165 20.8565 7.67868 20.8203 7.82605 20.8203C7.98375 20.8203 8.11043 20.8513 8.20611 20.9134C8.30434 20.9754 8.38061 21.0491 8.4349 21.1344L8.41164 21.1965L8.45431 20.894H8.85374V22.5344H8.41939V22.135L8.46206 22.2397C8.4517 22.2552 8.43104 22.2811 8.40001 22.3173C8.36899 22.3509 8.32632 22.3884 8.27202 22.4297C8.21773 22.4711 8.1531 22.506 8.07812 22.5344C8.00573 22.5629 7.9217 22.5771 7.82605 22.5771ZM7.94626 22.2203C8.02382 22.2203 8.09363 22.2061 8.15568 22.1777C8.22031 22.1492 8.2746 22.1091 8.31856 22.0574C8.3651 22.0057 8.3987 21.9437 8.41939 21.8713V21.5145C8.3987 21.4473 8.3651 21.3891 8.31856 21.34C8.27202 21.2883 8.21515 21.2482 8.14792 21.2197C8.0833 21.1913 8.01089 21.1771 7.93075 21.1771C7.84285 21.1771 7.7614 21.1991 7.68644 21.243C7.61145 21.287 7.55069 21.3477 7.50416 21.4253C7.4602 21.5029 7.43824 21.592 7.43824 21.6929C7.43824 21.7937 7.46151 21.8803 7.50805 21.9605C7.55458 22.0406 7.61663 22.104 7.6942 22.1505C7.77176 22.197 7.85576 22.2203 7.94626 22.2203ZM10.2369 22.5771C10.043 22.5771 9.87752 22.5396 9.7405 22.4646C9.60347 22.3897 9.49877 22.2862 9.42636 22.1544C9.35398 22.02 9.31778 21.8687 9.31778 21.7006C9.31778 21.5326 9.35916 21.3865 9.44188 21.2547C9.52462 21.1228 9.63578 21.0181 9.7754 20.9405C9.91761 20.8604 10.074 20.8203 10.2447 20.8203C10.4696 20.8203 10.6545 20.8862 10.7992 21.0181C10.9466 21.1474 11.0448 21.3309 11.094 21.5688L9.77153 22.0148L9.6707 21.7704L10.7023 21.402L10.6131 21.4524C10.5846 21.3749 10.5381 21.3077 10.4735 21.2508C10.4114 21.1939 10.3235 21.1655 10.2097 21.1655C10.1193 21.1655 10.0391 21.1874 9.9693 21.2314C9.8995 21.2728 9.84391 21.3322 9.80255 21.4098C9.76377 21.4848 9.74437 21.574 9.74437 21.6774C9.74437 21.7808 9.76635 21.8764 9.81031 21.9566C9.85425 22.0368 9.91372 22.0988 9.9887 22.1427C10.0637 22.1841 10.149 22.2048 10.2447 22.2048C10.3119 22.2048 10.3765 22.1932 10.4386 22.1699C10.5006 22.1466 10.5588 22.1156 10.6131 22.0768L10.8109 22.3987C10.7255 22.453 10.6312 22.4969 10.5278 22.5306C10.4269 22.5616 10.33 22.5771 10.2369 22.5771ZM11.913 20.894L11.9518 21.3594L11.9363 21.2934C11.9828 21.1952 12.0462 21.1112 12.1263 21.0414C12.2091 20.969 12.2931 20.9147 12.3784 20.8785C12.4637 20.8397 12.5335 20.8203 12.5878 20.8203L12.5684 21.2547C12.4443 21.2443 12.3358 21.2676 12.2427 21.3245C12.1522 21.3788 12.0811 21.4511 12.0294 21.5416C11.9803 21.6321 11.9557 21.7278 11.9557 21.8286V22.5344H11.5214V20.894H11.913ZM12.8248 21.6968C12.8248 21.5313 12.8635 21.3826 12.9411 21.2508C13.0187 21.1163 13.1273 21.0116 13.2669 20.9367C13.4091 20.8591 13.5694 20.8203 13.7478 20.8203C13.9261 20.8203 14.0903 20.8591 14.2248 20.9367C14.3618 21.0116 14.4678 21.1163 14.5428 21.2508C14.6177 21.3826 14.6552 21.5313 14.6552 21.6968C14.6552 21.8622 14.6177 22.0122 14.5428 22.1466C14.4678 22.2785 14.3618 22.3832 14.2248 22.4607C14.0903 22.5383 13.93 22.5771 13.7439 22.5771C13.568 22.5771 13.4103 22.5422 13.2707 22.4724C13.1311 22.4 13.0212 22.2979 12.9411 22.166C12.8635 22.0342 12.8248 21.8777 12.8248 21.6968ZM13.263 21.7006C13.263 21.7963 13.2837 21.8842 13.325 21.9644C13.3664 22.0419 13.4233 22.104 13.4957 22.1505C13.568 22.197 13.6482 22.2203 13.7361 22.2203C13.8318 22.2203 13.9145 22.197 13.9843 22.1505C14.0567 22.104 14.1123 22.0419 14.1511 21.9644C14.1924 21.8842 14.2131 21.7963 14.2131 21.7006C14.2131 21.605 14.1924 21.5145 14.1511 21.4369C14.1123 21.3568 14.0567 21.2934 13.9843 21.2469C13.9145 21.2004 13.8318 21.1771 13.7361 21.1771C13.6456 21.1771 13.5642 21.2017 13.4918 21.2508C13.422 21.2973 13.3664 21.3594 13.325 21.4369C13.2837 21.5145 13.263 21.6024 13.263 21.7006ZM15.6041 22.5694C15.48 22.5694 15.3611 22.5474 15.2474 22.5034C15.1362 22.4595 15.0418 22.3948 14.9643 22.3095L15.1504 22.0652C15.2228 22.135 15.2939 22.1867 15.3637 22.2203C15.4361 22.2513 15.5046 22.2668 15.5693 22.2668C15.6184 22.2668 15.6623 22.2617 15.7011 22.2513C15.7425 22.2384 15.7748 22.219 15.7981 22.1932C15.8239 22.1673 15.8368 22.1324 15.8368 22.0884C15.8368 22.0368 15.8187 21.9967 15.7825 21.9682C15.7464 21.9372 15.6998 21.9127 15.6429 21.8945C15.5861 21.8739 15.5266 21.8545 15.4645 21.8364C15.3223 21.7924 15.2163 21.7278 15.1465 21.6425C15.0767 21.5572 15.0418 21.4589 15.0418 21.3477C15.0418 21.2624 15.0638 21.181 15.1077 21.1034C15.1517 21.0233 15.2189 20.9573 15.3094 20.9056C15.3999 20.8539 15.5137 20.8281 15.6507 20.8281C15.7748 20.8281 15.8821 20.8423 15.9726 20.8707C16.0657 20.8966 16.1523 20.9418 16.2324 21.0065L16.0657 21.2663C16.0191 21.2223 15.9635 21.1887 15.8989 21.1655C15.8368 21.1396 15.78 21.1254 15.7282 21.1228C15.6817 21.1202 15.6404 21.1267 15.6041 21.1422C15.568 21.1551 15.5382 21.1745 15.515 21.2004C15.4943 21.2262 15.4839 21.256 15.4839 21.2896C15.4813 21.3413 15.4982 21.3826 15.5343 21.4137C15.5731 21.4447 15.6223 21.4693 15.6817 21.4873C15.7412 21.5054 15.8007 21.5248 15.8601 21.5455C15.9403 21.5688 16.0114 21.6011 16.0734 21.6425C16.1355 21.6838 16.1833 21.7343 16.2169 21.7937C16.2531 21.8506 16.2712 21.9217 16.2712 22.007C16.2712 22.1053 16.2466 22.1983 16.1975 22.2862C16.1484 22.3716 16.0747 22.4401 15.9764 22.4918C15.8782 22.5435 15.7541 22.5694 15.6041 22.5694ZM17.7482 22.5771C17.6344 22.5771 17.5245 22.5525 17.4185 22.5034C17.3125 22.4543 17.2272 22.3871 17.1626 22.3018L17.1859 22.1699V23.3217H16.7515V20.863H17.1277L17.1859 21.243L17.1471 21.1267C17.2272 21.0388 17.3242 20.9664 17.4379 20.9095C17.5543 20.85 17.6848 20.8203 17.8296 20.8203C17.9848 20.8203 18.1231 20.8565 18.2446 20.9289C18.3661 21.0013 18.4617 21.1047 18.5316 21.2391C18.6039 21.371 18.6401 21.5274 18.6401 21.7084C18.6401 21.8894 18.6014 22.0445 18.5238 22.1738C18.4462 22.303 18.3402 22.4026 18.2058 22.4724C18.0714 22.5422 17.9188 22.5771 17.7482 22.5771ZM17.6629 22.2319C17.7585 22.2319 17.8464 22.21 17.9266 22.166C18.0093 22.1221 18.0752 22.0613 18.1244 21.9837C18.1735 21.9036 18.198 21.8144 18.198 21.7161C18.198 21.6127 18.1748 21.5222 18.1282 21.4447C18.0843 21.3645 18.0235 21.3025 17.946 21.2585C17.871 21.212 17.787 21.1887 17.6939 21.1887C17.6086 21.1887 17.5323 21.2029 17.4651 21.2314C17.3979 21.2598 17.341 21.3012 17.2944 21.3555C17.2479 21.4072 17.2117 21.4693 17.1859 21.5416V21.8713C17.2039 21.9411 17.235 22.0031 17.2789 22.0574C17.3229 22.1117 17.3785 22.1544 17.4457 22.1854C17.5129 22.2164 17.5853 22.2319 17.6629 22.2319ZM19.7899 22.5771C19.6348 22.5771 19.4939 22.5448 19.3672 22.4801C19.2431 22.4155 19.1448 22.3198 19.0724 22.1932C19 22.0639 18.9638 21.9049 18.9638 21.7161C18.9638 21.5274 19.0013 21.371 19.0763 21.2391C19.1539 21.1047 19.2547 21.0013 19.3788 20.9289C19.5055 20.8565 19.6425 20.8203 19.7899 20.8203C19.9476 20.8203 20.0743 20.8513 20.1699 20.9134C20.2682 20.9754 20.3444 21.0491 20.3987 21.1344L20.3755 21.1965L20.4181 20.894H20.8176V22.5344H20.3832V22.135L20.4259 22.2397C20.4155 22.2552 20.3949 22.2811 20.3639 22.3173C20.3328 22.3509 20.2902 22.3884 20.2359 22.4297C20.1816 22.4711 20.1169 22.506 20.042 22.5344C19.9696 22.5629 19.8855 22.5771 19.7899 22.5771ZM19.9101 22.2203C19.9877 22.2203 20.0575 22.2061 20.1195 22.1777C20.1842 22.1492 20.2385 22.1091 20.2824 22.0574C20.3289 22.0057 20.3626 21.9437 20.3832 21.8713V21.5145C20.3626 21.4473 20.3289 21.3891 20.2824 21.34C20.2359 21.2883 20.179 21.2482 20.1118 21.2197C20.0471 21.1913 19.9747 21.1771 19.8946 21.1771C19.8067 21.1771 19.7252 21.1991 19.6503 21.243C19.5753 21.287 19.5145 21.3477 19.468 21.4253C19.4241 21.5029 19.4021 21.592 19.4021 21.6929C19.4021 21.7937 19.4253 21.8803 19.4719 21.9605C19.5184 22.0406 19.5805 22.104 19.658 22.1505C19.7356 22.197 19.8196 22.2203 19.9101 22.2203ZM22.7747 22.3832C22.7023 22.4427 22.6131 22.4905 22.5071 22.5267C22.4037 22.5603 22.299 22.5771 22.193 22.5771C22.012 22.5771 21.853 22.5422 21.716 22.4724C21.579 22.4 21.4717 22.3005 21.3941 22.1738C21.3191 22.0445 21.2816 21.8907 21.2816 21.7123C21.2816 21.5339 21.3217 21.3801 21.4018 21.2508C21.4846 21.1215 21.5919 21.0233 21.7237 20.956C21.8582 20.8862 22.0004 20.8513 22.1503 20.8513C22.2873 20.8513 22.4089 20.8707 22.5149 20.9095C22.6209 20.9457 22.7127 20.9961 22.7902 21.0608L22.573 21.3438C22.5317 21.3102 22.4774 21.2792 22.4102 21.2508C22.3455 21.2197 22.2718 21.2042 22.1891 21.2042C22.1012 21.2042 22.0211 21.2262 21.9487 21.2702C21.8788 21.3141 21.822 21.3749 21.778 21.4524C21.7367 21.5274 21.716 21.614 21.716 21.7123C21.716 21.8054 21.7379 21.8907 21.7819 21.9682C21.8259 22.0458 21.8866 22.1078 21.9642 22.1544C22.0417 22.1983 22.1309 22.2203 22.2318 22.2203C22.2964 22.2203 22.3559 22.2113 22.4102 22.1932C22.467 22.1725 22.5162 22.1453 22.5575 22.1117L22.7747 22.3832ZM24.0035 22.5771C23.8096 22.5771 23.6441 22.5396 23.5071 22.4646C23.37 22.3897 23.2653 22.2862 23.1929 22.1544C23.1205 22.02 23.0843 21.8687 23.0843 21.7006C23.0843 21.5326 23.1257 21.3865 23.2084 21.2547C23.2912 21.1228 23.4024 21.0181 23.542 20.9405C23.6842 20.8604 23.8406 20.8203 24.0112 20.8203C24.2362 20.8203 24.421 20.8862 24.5658 21.0181C24.7132 21.1474 24.8114 21.3309 24.8605 21.5688L23.5381 22.0148L23.4373 21.7704L24.4688 21.402L24.3796 21.4524C24.3512 21.3749 24.3047 21.3077 24.24 21.2508C24.178 21.1939 24.0901 21.1655 23.9763 21.1655C23.8858 21.1655 23.8057 21.1874 23.7359 21.2314C23.6661 21.2728 23.6105 21.3322 23.5691 21.4098C23.5303 21.4848 23.5109 21.574 23.5109 21.6774C23.5109 21.7808 23.5329 21.8764 23.5769 21.9566C23.6208 22.0368 23.6803 22.0988 23.7553 22.1427C23.8302 22.1841 23.9156 22.2048 24.0112 22.2048C24.0784 22.2048 24.1431 22.1932 24.2051 22.1699C24.2672 22.1466 24.3253 22.1156 24.3796 22.0768L24.5774 22.3987C24.4921 22.453 24.3977 22.4969 24.2943 22.5306C24.1935 22.5616 24.0965 22.5771 24.0035 22.5771Z" fill="#FF822E"/>
<path d="M10.0112 18.8766C11.5472 18.8766 12.7925 17.6313 12.7925 16.0953C12.7925 14.5592 11.5472 13.314 10.0112 13.314C8.47509 13.314 7.22986 14.5592 7.22986 16.0953C7.22986 17.6313 8.47509 18.8766 10.0112 18.8766Z" stroke="url(#paint0_linear_258_223)" stroke-width="0.364713" stroke-miterlimit="10"/>
<path d="M10.0112 18.5586C11.3717 18.5586 12.4746 17.4557 12.4746 16.0952C12.4746 14.7347 11.3717 13.6318 10.0112 13.6318C8.65074 13.6318 7.54785 14.7347 7.54785 16.0952C7.54785 17.4557 8.65074 18.5586 10.0112 18.5586Z" stroke="url(#paint1_linear_258_223)" stroke-width="0.364713" stroke-miterlimit="10"/>
<path d="M10.0111 18.3104C11.2346 18.3104 12.2264 17.3186 12.2264 16.0951C12.2264 14.8717 11.2346 13.8799 10.0111 13.8799C8.7877 13.8799 7.7959 14.8717 7.7959 16.0951C7.7959 17.3186 8.7877 18.3104 10.0111 18.3104Z" stroke="url(#paint2_linear_258_223)" stroke-width="0.364713" stroke-miterlimit="10"/>
<path d="M10.3241 10.5967C10.257 10.2167 10.2545 9.69777 10.2074 9.43953C10.1602 9.18126 10.0112 9 10.0112 9C10.0112 9 9.86219 9.18126 9.81502 9.43953C9.76785 9.69777 9.76534 10.2168 9.69831 10.5967C9.63127 10.9766 9.37549 11.5129 9.37549 11.5129C9.37549 11.5129 9.66952 11.2738 10.0112 11.2738C10.3528 11.2738 10.6469 11.5129 10.6469 11.5129C10.6469 11.5129 10.3911 10.9766 10.3241 10.5967ZM10.0112 9.84283C9.94536 9.84283 9.892 9.78946 9.892 9.72364C9.892 9.65782 9.94536 9.60445 10.0112 9.60445C10.077 9.60445 10.1304 9.65782 10.1304 9.72364C10.1304 9.78946 10.077 9.84283 10.0112 9.84283Z" fill="url(#paint3_linear_258_223)"/>
<path d="M11.3564 17.131C11.3564 17.131 11.7298 16.8311 12.1842 17.0359C12.6387 17.2408 12.6934 17.3609 12.6934 17.3609C12.6934 17.3609 12.6325 17.4866 12.5571 17.6082C12.4618 17.7617 12.3011 17.9818 12.3011 17.9818C12.3011 17.9818 12.1889 17.6903 11.9256 17.4554C11.6029 17.1812 11.3564 17.131 11.3564 17.131Z" fill="#FEC84B"/>
<path d="M10.5331 15.961C10.5012 15.9214 10.4818 15.9005 10.4818 15.9005L10.0112 11.7412L9.54067 15.9005C9.54067 15.9005 9.52119 15.9214 9.48932 15.961C9.63654 15.8959 9.8091 15.8564 10.0112 15.8564C10.2134 15.8564 10.386 15.8959 10.5332 15.961H10.5331Z" fill="url(#paint4_linear_258_223)"/>
<path d="M11.0553 17.7516C11.0544 17.7581 11.0535 17.7645 11.0526 17.7708C11.4104 17.6897 11.7135 17.5782 11.9465 17.4751C11.6775 17.2237 11.3549 17.1303 11.3549 17.1303C11.3549 17.1303 11.2221 16.2654 10.5331 15.9609C10.696 16.1633 11.183 16.8546 11.0553 17.7517V17.7516Z" fill="#FFAC42"/>
<path d="M8.96702 17.7517C8.8393 16.8546 9.32636 16.1633 9.48926 15.9609C8.80022 16.2654 8.66747 17.1303 8.66747 17.1303C8.66747 17.1303 8.34484 17.2237 8.07581 17.4751C8.30881 17.5782 8.61193 17.6897 8.96977 17.7708C8.96884 17.7645 8.96794 17.7581 8.96702 17.7516V17.7517Z" fill="#FFAC42"/>
<path d="M8.96703 17.7517C8.96795 17.7582 8.96885 17.7646 8.96977 17.7709C9.27932 17.8412 9.62976 17.8888 10.0112 17.8888C10.3926 17.8888 10.7431 17.8412 11.0526 17.7709C11.0536 17.7646 11.0545 17.7582 11.0554 17.7517C11.1831 16.8546 10.696 16.1633 10.5331 15.961C10.3859 15.896 10.2133 15.8564 10.0112 15.8564C9.80905 15.8564 9.63649 15.896 9.48927 15.961C9.32637 16.1633 8.8393 16.8546 8.96703 17.7517Z" fill="url(#paint5_linear_258_223)"/>
<path d="M12.0155 17.5569C12.1277 17.6781 12.2245 17.8348 12.3011 17.9817C12.4076 17.8495 12.4982 17.7178 12.5709 17.5922C12.6188 17.5095 12.6572 17.427 12.6934 17.3568C12.6934 17.3568 12.6856 17.3353 12.6028 17.2723C12.5122 17.2034 12.4902 17.1948 12.4902 17.1948C12.4902 17.1948 12.2959 17.3332 11.9466 17.4878C11.97 17.5097 11.993 17.5327 12.0155 17.5569V17.5569Z" fill="url(#paint6_linear_258_223)"/>
<path d="M9.19378 18.9157C9.13978 18.73 9.05735 18.3813 8.96977 17.7709C8.61194 17.6897 8.30881 17.5782 8.07581 17.4751C8.05342 17.496 8.03137 17.518 8.00992 17.5412C7.90048 17.6594 7.80636 17.8128 7.73242 17.9557C8.04736 18.351 8.51191 18.7239 9.19378 18.9157Z" fill="#FFAC42"/>
<path opacity="0.66" d="M9.19378 18.9157C9.13978 18.73 9.05735 18.3813 8.96977 17.7709C8.61194 17.6897 8.30881 17.5782 8.07581 17.4751C8.05342 17.496 8.03137 17.518 8.00992 17.5412C7.90048 17.6594 7.80636 17.8128 7.73242 17.9557C8.04736 18.351 8.51191 18.7239 9.19378 18.9157Z" fill="url(#paint7_linear_258_223)"/>
<path d="M10.1304 19.049C10.3842 19.0268 10.6152 18.9845 10.8255 18.9263C10.8795 18.7434 10.9634 18.3932 11.0526 17.771C10.7431 17.8412 10.3927 17.8888 10.0112 17.8888C9.62977 17.8888 9.27933 17.8412 8.96979 17.771C9.05737 18.3815 9.13979 18.7301 9.19379 18.9158C9.4691 18.9932 9.77982 19.0411 10.1304 19.049V19.049Z" fill="url(#paint8_linear_258_223)"/>
<path d="M10.1304 19.049C10.3842 19.0268 10.6152 18.9845 10.8255 18.9263C10.8795 18.7434 10.9634 18.3932 11.0526 17.771C10.7431 17.8412 10.3927 17.8888 10.0112 17.8888C9.62977 17.8888 9.27933 17.8412 8.96979 17.771C9.05737 18.3815 9.13979 18.7301 9.19379 18.9158C9.4691 18.9932 9.77982 19.0411 10.1304 19.049V19.049Z" fill="url(#paint9_linear_258_223)"/>
<path d="M12.3024 17.98C12.2267 17.8305 12.1281 17.6661 12.0124 17.5412C11.991 17.5181 11.969 17.496 11.9466 17.4751C11.7136 17.5782 11.4104 17.6897 11.0526 17.7709C10.9633 18.393 10.8794 18.7433 10.8255 18.9262C11.5188 18.7342 11.987 18.3689 12.3024 17.98L12.3024 17.98Z" fill="#FFAC42"/>
<path d="M12.3024 17.98C12.2267 17.8305 12.1281 17.6661 12.0124 17.5412C11.991 17.5181 11.969 17.496 11.9466 17.4751C11.7136 17.5782 11.4104 17.6897 11.0526 17.7709C10.9633 18.393 10.8794 18.7433 10.8255 18.9262C11.5188 18.7342 11.987 18.3689 12.3024 17.98L12.3024 17.98Z" fill="url(#paint10_linear_258_223)"/>
<path d="M7.84496 17.0359C7.59557 17.1484 7.43483 17.273 7.34052 17.3627C7.34059 17.3628 7.46041 17.5994 7.53646 17.7036C7.61254 17.8079 7.73241 17.9559 7.73241 17.9559L7.73387 17.9644C7.81051 17.8182 7.94142 17.6 8.10357 17.4554C8.42629 17.1812 8.67276 17.131 8.67276 17.131C8.67276 17.131 8.29937 16.8311 7.84496 17.0359V17.0359Z" fill="#FEC84B"/>
<path d="M7.7362 17.9642C7.81203 17.8169 7.90863 17.6586 8.02104 17.5366C8.04299 17.5128 8.0588 17.4966 8.08173 17.4751C7.73948 17.3229 7.54781 17.1987 7.54781 17.1987C7.54781 17.1987 7.49417 17.2363 7.44032 17.2764C7.38646 17.3165 7.33557 17.3659 7.33557 17.3659C7.33557 17.3659 7.46558 17.6033 7.53621 17.7035C7.60685 17.8037 7.73615 17.9642 7.73615 17.9642H7.7362Z" fill="url(#paint11_linear_258_223)"/>
<path opacity="0.4" d="M8.03645 16.5816C8.03645 16.5816 7.738 16.7654 7.57273 16.9813C7.40747 17.1971 7.33557 17.3658 7.33557 17.3658C7.33557 17.3658 7.46096 17.2295 7.80899 17.0522C7.99546 16.9572 8.17286 16.9648 8.17286 16.9648C8.17286 16.9648 8.13135 16.8744 8.1066 16.8075C8.07577 16.7243 8.03645 16.5815 8.03645 16.5815V16.5816Z" fill="black"/>
<path opacity="0.4" d="M11.9844 16.5869C11.9844 16.5869 12.2797 16.7571 12.45 16.969C12.6202 17.1809 12.6934 17.3566 12.6934 17.3566C12.6934 17.3566 12.6237 17.2414 12.2191 17.0494C12.013 16.9516 11.8496 16.9641 11.8496 16.9641C11.8496 16.9641 11.892 16.8778 11.9152 16.8104C11.9441 16.7265 11.9844 16.5869 11.9844 16.5869L11.9844 16.5869Z" fill="black"/>
<path opacity="0.4" d="M10.3807 13.1541L10.1689 13.1357L10.2757 14.0796L10.5038 14.1227L10.3807 13.1541Z" fill="black"/>
<path opacity="0.4" d="M9.64174 13.1541L9.8535 13.1357L9.74671 14.0796L9.51862 14.1227L9.64174 13.1541Z" fill="black"/>
</g>
<defs>
<linearGradient id="paint0_linear_258_223" x1="10.0112" y1="19.0589" x2="10.0112" y2="13.1316" gradientUnits="userSpaceOnUse">
<stop offset="0.11" stop-color="#B838FA"/>
<stop offset="0.91" stop-color="#F17DF4"/>
</linearGradient>
<linearGradient id="paint1_linear_258_223" x1="10.0112" y1="18.7409" x2="10.0112" y2="13.4495" gradientUnits="userSpaceOnUse">
<stop offset="0.11" stop-color="#A119F5"/>
<stop offset="0.91" stop-color="#D054DE"/>
</linearGradient>
<linearGradient id="paint2_linear_258_223" x1="10.0111" y1="18.4927" x2="10.0111" y2="13.6975" gradientUnits="userSpaceOnUse">
<stop offset="0.11" stop-color="#771CC3"/>
<stop offset="0.91" stop-color="#B844D5"/>
</linearGradient>
<linearGradient id="paint3_linear_258_223" x1="10.0112" y1="11.5129" x2="10.0112" y2="9" gradientUnits="userSpaceOnUse">
<stop stop-color="#E02268"/>
<stop offset="0.92" stop-color="#F5DC4D"/>
</linearGradient>
<linearGradient id="paint4_linear_258_223" x1="10.0112" y1="19.1112" x2="10.0112" y2="11.7412" gradientUnits="userSpaceOnUse">
<stop offset="0.11" stop-color="#FFAA2A"/>
<stop offset="0.47" stop-color="#FFA729"/>
<stop offset="0.81" stop-color="#FEE241"/>
<stop offset="0.91" stop-color="#FEE542"/>
</linearGradient>
<linearGradient id="paint5_linear_258_223" x1="10.0112" y1="19.1113" x2="10.0112" y2="11.7413" gradientUnits="userSpaceOnUse">
<stop offset="0.11" stop-color="#FF7C33"/>
<stop offset="0.91" stop-color="#FF9523"/>
</linearGradient>
<linearGradient id="paint6_linear_258_223" x1="12.32" y1="17.9817" x2="12.32" y2="17.1948" gradientUnits="userSpaceOnUse">
<stop offset="0.28" stop-color="#F99C4C"/>
<stop offset="1" stop-color="#FBB54D"/>
</linearGradient>
<linearGradient id="paint7_linear_258_223" x1="8.46311" y1="18.9157" x2="8.46311" y2="17.4751" gradientUnits="userSpaceOnUse">
<stop stop-color="#EE4D54"/>
<stop offset="0.99" stop-color="#F98E47"/>
</linearGradient>
<linearGradient id="paint8_linear_258_223" x1="10.0112" y1="19.049" x2="10.0112" y2="12.0215" gradientUnits="userSpaceOnUse">
<stop offset="0.11" stop-color="#FFAA2A"/>
<stop offset="0.47" stop-color="#FFA729"/>
<stop offset="0.81" stop-color="#FEE241"/>
<stop offset="0.91" stop-color="#FEE542"/>
</linearGradient>
<linearGradient id="paint9_linear_258_223" x1="10.0112" y1="19.049" x2="10.0112" y2="17.771" gradientUnits="userSpaceOnUse">
<stop stop-color="#EC4655"/>
<stop offset="0.91" stop-color="#F45E46"/>
</linearGradient>
<linearGradient id="paint10_linear_258_223" x1="11.564" y1="18.9262" x2="11.564" y2="17.4751" gradientUnits="userSpaceOnUse">
<stop stop-color="#EF5F58"/>
<stop offset="0.91" stop-color="#F8954A"/>
</linearGradient>
<linearGradient id="paint11_linear_258_223" x1="7.70867" y1="17.9642" x2="7.70867" y2="17.1987" gradientUnits="userSpaceOnUse">
<stop offset="0.28" stop-color="#F99C4C"/>
<stop offset="1" stop-color="#FBB54D"/>
</linearGradient>
<clipPath id="clip0_258_223">
<rect width="17.8605" height="14.3215" fill="white" transform="translate(7 9)"/>
</clipPath>
</defs>
</svg>
