<svg width="18" height="18" viewBox="0 0 18 18" fill="none" xmlns="http://www.w3.org/2000/svg">
<path d="M18 4C18 1.8 16.2 0 14 0H13C12.4 0 12 0.4 12 1C12 1.6 12.4 2 13 2H14C15.1 2 16 2.9 16 4V5.1C16 5.7 16.4 6.1 17 6.1C17.6 6.1 18 5.7 18 5.1V4ZM18 13C18 12.4 17.6 12 17 12C16.4 12 16 12.4 16 13V14C16 15.1 15.1 16 14 16H13C12.4 16 12 16.4 12 17C12 17.6 12.4 18 13 18H14C16.2 18 18 16.2 18 14V13ZM0 14C0 16.2 1.8 18 4 18H5C5.6 18 6 17.6 6 17C6 16.4 5.6 16 5 16H4C2.9 16 2 15.1 2 14V13C2 12.4 1.6 12 1 12C0.4 12 0 12.4 0 13V14ZM5 0H4C1.8 0 0 1.8 0 4V5C0 5.6 0.4 6 1 6C1.6 6 2 5.6 2 5V4C2 2.9 2.9 2 4 2H5C5.6 2 6 1.6 6 1C6 0.4 5.6 0 5 0ZM12 6C12 4.3 10.7 3 9 3C7.3 3 6 4.3 6 6C6 7.7 7.3 9 9 9C10.7 9 12 7.7 12 6ZM9 7C8.4 7 8 6.6 8 6C8 5.4 8.4 5 9 5C9.6 5 10 5.4 10 6C10 6.6 9.6 7 9 7Z" fill="white"/>
<path d="M4.50122 11.3999L4.10122 12.6999C3.90122 13.1999 4.20122 13.7999 4.70122 13.9999C5.20122 14.1999 5.80122 13.8999 6.00122 13.3999L6.40122 11.9999C6.60122 11.3999 7.20122 10.9999 7.80122 10.9999H10.2012C10.8012 10.9999 11.4012 11.3999 11.6012 11.9999L12.0012 13.2999C12.1012 13.6999 12.5012 13.9999 12.9012 13.9999C13.0012 13.9999 13.1012 13.9999 13.2012 13.8999C13.7012 13.6999 14.0012 13.1999 13.8012 12.5999L13.4012 11.2999C13.0012 9.99988 11.7012 8.99988 10.2012 8.99988H9.00122H7.80122C6.30122 8.99988 5.00122 9.99988 4.50122 11.3999Z" fill="white"/>
</svg>
